# xmcd
#
# Track frame offsets:
#   150
#   11584
#   31577
#   49567
#   66182
#   84795
#   102492
#   118135
#   131917
#   146112
#   161967
#   181490
#
# Disc length: 2677 seconds
#
# Revision: 0
# Processed by: cddbd v1.5.1PL2 Copyright (c) Steve Scherf et al.
# Submitted via: GXTranscoder 2.0.1939
#
DISCID=a40a730c
DTITLE=Nina - Tropicalisima
DYEAR=1900
DGENRE=Latin
TTITLE0=La chica gomela
TTITLE1=El chupa cabra
TTITLE2=El canario
TTITLE3=El chisme
TTITLE4=Cachete,pechito y ombligo
TTITLE5=A gozar todo el mundo
TTITLE6=Soka al soko
TTITLE7=Melosa
TTITLE8=Mar adentro
TTITLE9=Muñeca linda
TTITLE10=Tu eres
TTITLE11=No llores por mi agertina
EXTD=
EXTT0=
EXTT1=
EXTT2=
EXTT3=
EXTT4=
EXTT5=
EXTT6=
EXTT7=
EXTT8=
EXTT9=
EXTT10=
EXTT11=
PLAYORDER=
